<svg xmlns="http://www.w3.org/2000/svg" width="137" height="189" fill="none"><g clip-path="url(#a)"><path fill="#48FF91" d="M110.779 124.832c15.34-4.893 18.739-14.645 18.739-14.645V65.665c0-35.65-28.904-64.554-64.559-64.554-32.635 0-59.612 24.219-63.945 55.66l83.635 13.754v50.381l26.124 3.931.006-.005Z"/><path stroke="#0500FF" stroke-linecap="round" stroke-linejoin="round" stroke-width=".49" d="M38.114 20.55C51.016 8.464 70.765-.262 89.489 5.885"/><path fill="url(#b)" d="M74.477 40.127c-6.532 6.267-11.984 15.08-16.47 26.016l26.64 4.382v50.382l26.131 3.931c8.867-2.829 13.738-7.276 16.274-10.529V68.902l-1.222-17.089c-6.185-22.486-26.998-35.035-51.353-11.68v-.006Z"/><path stroke="#0500FF" stroke-linecap="round" stroke-linejoin="round" stroke-width=".49" d="M110.779 124.832c15.34-4.893 18.739-14.645 18.739-14.645V65.665c0-35.65-28.904-64.554-64.559-64.554-32.635 0-59.612 24.219-63.945 55.66l83.635 13.754v50.381l26.124 3.931.006-.005Z"/><path fill="#1B1B1C" stroke="#0500FF" stroke-linecap="round" stroke-linejoin="round" stroke-width=".49" d="M89.615 76.113c-9.46 3.443-22.52 5.572-36.953 5.572-19.597 0-36.675-3.927-45.618-9.737v62.865l4.876 16.975c6.141 8.487 24.56 7.222 24.56 7.222l58.505-49.48V74.158l-5.37 1.955Z"/><path stroke="#0500FF" stroke-linecap="round" stroke-linejoin="round" stroke-width=".49" d="m94.981 101.363-5.37 1.282c-41.557 9.91-75.903 4.919-82.571-9.557M79.027 123.025c-38.419 11.479-65.863 5.603-71.983-7.679M45.392 151.461c-20.38.842-34.22-4.746-38.348-13.711"/><path fill="#0500FF" d="M23.575 158.069V78.463"/><path stroke="#0500FF" stroke-miterlimit="10" stroke-width=".49" d="M23.575 158.069V78.463M12.602 152.629V74.874M51.013 146.709V81.672M78.51 123.458V79.197"/><path fill="#0500FF" stroke="#0500FF" stroke-linecap="round" stroke-linejoin="round" stroke-width=".49" d="M43.608 107.694c5.995.114 7.44-1.786 7.407-8.64.032 6.854 2.128 8.689 6.994 8.461-4.866.228-6.983 2.433-6.994 8.314.01-5.881-1.407-8.021-7.407-8.135ZM19.867 125.783c2.878.901 3.611 2.91 3.709 7.988-.082-5.045.977-6.527 3.763-5.898-2.791-.629-3.747-2.568-3.866-8.281.119 5.713-.733 7.087-3.606 6.185v.006Z"/><path fill="#48FF91" d="M10.025 76.353c-.211-.418-.515-.972-.673-1.412l.027 1.57c.093.287.212.57.353.857l.168 9.004-.336-.799.027 1.57c.299.657.777 1.504 1.19 2.101l-.028-1.57c-.2-.249-.375-.493-.532-.749l-.201-10.572M12.883 89.924c-.56-.489-.711-1.657-.744-2.553l-.016-.89c.798-.787.847-.83 1.439-1.347l.065 3.367c0 1.564-.467 1.629-.744 1.423Zm-.787-5.083-.055-3.04c-.005-1.912.57-1.5.75-1.326.157.152.678.782.738 2.455l.01.564c-.879.782-.95.847-1.438 1.347m.58-6.006c-.808-.526-1.215.294-1.21 2.444l.103 5.571c.141 4.274 1.597 5.392 2.313 4.55.527-.618.533-1.96.533-2.4l-.104-5.57c-.114-2.749-1.118-4.21-1.634-4.6M17.997 92.801c-.891-.45-1.12-1.602-1.157-2.487l-.017-.89c1.31-.875 1.363-.907 2.27-1.472l.066 3.367c-.017 1.922-1.043 1.536-1.162 1.487m-1.206-5.022-.054-3.041c.01-2.042 1.08-1.618 1.564-1.108.456.478.71 1.19.754 2.112l.011.565c-1.363.858-1.471.928-2.27 1.472m.994-6.066c-1.634-.592-1.993 1.064-2.004 2.552l.104 5.572c.184 4.235 2.682 5.43 3.784 4.197.625-.7.641-1.814.647-2.286l-.104-5.571c-.173-3.46-2.335-4.431-2.427-4.47M26.088 84.7c-1.053-.283-2.46-.652-3.502-.967l.027 1.57 2.085.602.168 9.003a59.25 59.25 0 0 1-1.95-.559l.028 1.57c1.689.515 3.475.977 5.343 1.384l-.027-1.57-1.976-.46-.201-10.573M34.96 86.383c-1.196-.19-2.787-.429-3.981-.64l.027 1.569 2.384.407.168 9.003c-.75-.12-1.493-.244-2.226-.374l.027 1.569c1.944.353 3.959.652 6.022.901l-.027-1.569a93.825 93.825 0 0 1-2.2-.288l-.2-10.572M43.648 98.068c-1.135-.13-1.798-.88-1.874-2.117l-.016-.89c1.52-.924 2.733-1.666 3.638-2.227l.065 3.366c-.043 1.896-1.52 1.89-1.813 1.874m-1.923-4.648-.054-3.041c.049-2.162 2.237-2.194 3.144-1.2.483.532.522 1.15.538 1.444l.01.565c-2.171 1.341-2.253 1.39-3.638 2.226m1.711-6.44c-2.112-.043-3.361 1.14-3.416 3.253l.104 5.571c.255 4.018 4.555 4.833 6.298 2.731.701-.847.728-1.802.739-2.258l-.103-5.572c-.223-3.4-3.275-3.703-3.622-3.725ZM53.704 98.366c-1.167-.043-1.851-.749-1.927-1.982l-.017-.89c2.21-1.466 2.34-1.553 3.73-2.504l.066 3.367c-.043 1.9-1.548 2.004-1.852 2.01Zm-1.976-4.512-.055-3.041c.055-2.183 2.297-2.373 3.231-1.434.494.5.527 1.114.549 1.407l.01.565c-2.133 1.444-2.307 1.564-3.73 2.503m1.765-6.576c-2.183.114-3.47 1.395-3.53 3.513l.104 5.572c.26 3.936 4.73 4.463 6.467 2.27.711-.897.738-1.858.75-2.32l-.104-5.57c-.223-3.389-3.334-3.465-3.687-3.465ZM64.812 87.019c-1.309.097-3.052.238-4.366.314l.027 1.57 2.645-.174.168 9.003-2.47.163.027 1.57c1.949-.136 4.55-.348 6.494-.533l-.027-1.57c-.766.082-1.537.158-2.308.224l-.2-10.573M74.505 85.774c-1.243.195-2.9.456-4.143.63l.027 1.57 2.52-.365.168 9.004c-.776.119-1.558.233-2.35.342l.026 1.569a261.77 261.77 0 0 0 6.13-1l-.026-1.569-2.156.391-.2-10.572"/><path fill="#2D9FFF" stroke="#0500FF" stroke-linecap="round" stroke-linejoin="round" stroke-width=".49" d="M3.614 88.58V66.164l5.691 1.57v20.113c0 9.21 4.41 20.417 4.41 20.417l-5.404 1.265-4.697-7.042V88.58Z"/><path fill="#0500FF" d="m9.3 85.599-5.686.2V66.165l5.686 1.57v17.865Z"/><path fill="#2D9FFF" stroke="#0500FF" stroke-linecap="round" stroke-linejoin="round" stroke-width=".49" d="M28.76 116.969s38.668-5.012 61.501-26.135l4.72 1.716-34.314 29.687-31.908-5.268Z"/><path fill="#0500FF" stroke="#0500FF" stroke-linecap="round" stroke-linejoin="round" stroke-width=".49" d="M90.263 90.835V70.52h4.718v22.03l-4.718-1.716Z"/><path fill="#48FF91" d="M114.624 54.462 93.099 42.364C53.84 20.301 19.184 15.056 14.123 20.79 7.259 29.549 2.605 40.12 1.014 51.677a64.961 64.961 0 0 0-.608 8.894v2.09c0 10.508 23.399 19.023 52.26 19.023 14.434 0 27.493-2.129 36.952-5.572l20.591-7.493c.462-3.03 1.271-6.234 2.45-9.465a51.442 51.442 0 0 1 1.965-4.686v-.006Z"/><path stroke="#0500FF" stroke-linecap="round" stroke-linejoin="round" stroke-width=".49" d="m36.435 20.21-2.15 2.308c-1.049 1.13-3.15 1.819-4.665 1.53-1.515-.287-1.944-1.481-.95-2.665l1.819-2.167"/><path fill="url(#c)" stroke="#0500FF" stroke-miterlimit="10" stroke-width=".49" d="M134.407 69.51c2.884-7.924 1.104-15.847-3.978-17.696-5.081-1.85-11.538 3.075-14.422 11-2.885 7.924-1.104 15.848 3.977 17.697 5.082 1.85 11.539-3.075 14.423-11Z"/><path fill="#48FF91" stroke="#0500FF" stroke-miterlimit="10" stroke-width=".49" d="M133.034 69.011c1.876-5.154.717-10.308-2.589-11.511-3.306-1.203-7.506 2-9.382 7.154-1.876 5.155-.717 10.308 2.588 11.512 3.306 1.203 7.507-2 9.383-7.155Z"/><path stroke="#0500FF" stroke-linecap="round" stroke-linejoin="round" stroke-width=".49" d="M13.71 75.342c0-18.37 5.811-38.51 15.824-51.386"/><path stroke="#0500FF" stroke-miterlimit="10" stroke-width=".49" d="m114.622 54.463 4.676 2.629M127.056 60.858v-3.214l-2.449-5.354"/><path fill="#48FF91" d="M28.76 116.97c39.135-2.39 66.22-24.42 66.22-24.42l15.791 13.06v30.094s-23.393 38.663-82.012 52.667v-71.407.006Z"/><path fill="url(#d)" d="M43.266 115.154c-2.808 21.042-4.149 44.853-4.285 70.435 51.136-15.742 71.793-49.882 71.793-49.882v-30.094l-15.791-13.06s-20.553 16.715-51.717 22.601Z"/><path stroke="#0500FF" stroke-linecap="round" stroke-linejoin="round" stroke-width=".49" d="M106.14 141.937v-25.913l4.638-4.67M119.966 70.297h-5.3l-12.56 4.573v17.68l-3.274 3.188"/><path fill="#48FF91" stroke="#0500FF" stroke-linecap="round" stroke-linejoin="round" stroke-width=".49" d="M3.614 88.58c0 12.191 4.697 20.944 4.697 20.944v71.51s-4.697-16.329-4.697-33.227V88.58Z"/><path fill="#0500FF" stroke="#0500FF" stroke-linecap="round" stroke-linejoin="round" stroke-width=".49" d="m8.304 109.523 5.403-1.26v71.146l-5.403 1.624v-71.51Z"/><path fill="#1B1B1C" stroke="#0500FF" stroke-linecap="round" stroke-linejoin="round" stroke-width=".49" d="m8.304 181.034 5.403-1.623v-31.425l-5.403 8.672v24.376Z"/><path fill="url(#e)" d="M114.624 54.461 93.099 42.363a237.94 237.94 0 0 0-17.888-9.096 62.943 62.943 0 0 0-2.579 2.352c-10.143 9.725-17.686 25.603-23.03 46.026 1.016.022 2.037.032 3.064.032 14.433 0 27.492-2.128 36.952-5.571l20.591-7.494c.461-3.03 1.271-6.233 2.449-9.464a51.445 51.445 0 0 1 1.966-4.687Z"/><path fill="#0500FF" d="M89.522 114.141v-2.476l4.474-4.518v2.389l-1.987 1.911c-.391.375-1.032.945-1.032.945v.033s.63.038 1.032.108l1.987.381v2.492l-4.474-1.265ZM97.536 103.204l1.52-.554-2.9 13.005-1.52.554 2.9-13.005ZM99.762 110.899l1.988-1.912c.391-.374 1.031-.928 1.031-.928v-.033s-.63-.054-1.031-.125l-1.988-.38v-2.476l4.475 1.265v2.476l-4.475 4.518v-2.405Z"/><path stroke="#0500FF" stroke-linecap="round" stroke-linejoin="round" stroke-width=".49" d="M28.76 116.97c39.135-2.39 66.22-24.42 66.22-24.42l15.791 13.06v30.094s-23.393 38.663-82.012 52.667v-71.407.006ZM114.624 54.462 93.099 42.364C53.84 20.301 19.184 15.056 14.123 20.79 7.259 29.549 2.605 40.12 1.014 51.677a64.961 64.961 0 0 0-.608 8.894v2.09c0 10.508 23.399 19.023 52.26 19.023 14.434 0 27.493-2.129 36.952-5.572l20.591-7.493c.462-3.03 1.271-6.234 2.449-9.465a51.73 51.73 0 0 1 1.966-4.686v-.006Z"/><path fill="url(#f)" d="M99.773 14.225C92.698 10.18 85.71 8.53 78.178 10.81c3.203 2.677 7.96 6.804 17.49 7.825 7.445.798 13.999 4.708 18.408 8.2 0 0-6.005-7.875-14.297-12.615l-.006.005Z"/></g><defs><linearGradient id="b" x1="141.388" x2="57.6" y1="90.166" y2="61.995" gradientUnits="userSpaceOnUse"><stop stop-color="#48FF91"/><stop offset="1" stop-color="#2D9FFF"/></linearGradient><linearGradient id="c" x1="133.565" x2="126.587" y1="59.678" y2="65.097" gradientUnits="userSpaceOnUse"><stop stop-color="#48FF91"/><stop offset="1" stop-color="#2D9FFF"/></linearGradient><linearGradient id="d" x1="119.06" x2="35.273" y1="156.575" y2="128.409" gradientUnits="userSpaceOnUse"><stop stop-color="#48FF91"/><stop offset="1" stop-color="#2D9FFF"/></linearGradient><linearGradient id="e" x1="143.246" x2="59.459" y1="84.637" y2="56.465" gradientUnits="userSpaceOnUse"><stop stop-color="#48FF91"/><stop offset="1" stop-color="#2D9FFF"/></linearGradient><linearGradient id="f" x1="149.937" x2="83.624" y1="34.589" y2="12.292" gradientUnits="userSpaceOnUse"><stop stop-color="#48FF91"/><stop offset="1" stop-color="#2D9FFF"/></linearGradient><clipPath id="a"><path fill="#fff" d="M.134.84h135.922v187.813H.134z"/></clipPath></defs></svg>