<svg width="286" height="246" viewBox="0 0 286 246" fill="none" xmlns="http://www.w3.org/2000/svg">
<g clip-path="url(#clip0_2950_78580)">
<path d="M99.071 211.162C115.914 200.207 109.707 160.79 85.2072 123.122C60.7075 85.4531 27.1927 63.7971 10.3497 74.7518C-6.4932 85.7064 -0.28616 125.123 24.2135 162.792C48.7133 200.461 82.2281 222.117 99.071 211.162Z" fill="#1B1B1C" stroke="#0500FF" stroke-width="0.55911" stroke-linecap="round" stroke-linejoin="round"/>
<path d="M53.6434 197.039C49.818 184.21 43.2808 170.118 34.2652 156.259C25.2496 142.401 15.0187 130.709 4.84167 122.017" stroke="#0500FF" stroke-width="0.55911" stroke-linecap="round" stroke-linejoin="round"/>
<path d="M1.65863 89.2407C19.1631 93.2098 41.8578 112.175 59.7514 139.683C77.639 167.191 85.7806 195.626 82.3084 213.233" stroke="#0500FF" stroke-width="0.55911" stroke-linecap="round" stroke-linejoin="round"/>
<path d="M85.2082 123.119L24.212 162.791" stroke="#0500FF" stroke-width="0.55911" stroke-linecap="round" stroke-linejoin="round"/>
<path d="M63.314 95.853L8.16064 131.724" stroke="#0500FF" stroke-width="0.55911" stroke-linecap="round" stroke-linejoin="round"/>
<path d="M40.3443 77.9678L1.12091 103.476" stroke="#0500FF" stroke-width="0.55911" stroke-linecap="round" stroke-linejoin="round"/>
<path d="M101.047 153.623L45.6837 189.632" stroke="#0500FF" stroke-width="0.55911" stroke-linecap="round" stroke-linejoin="round"/>
<path d="M108.235 181.772L68.4905 207.622" stroke="#0500FF" stroke-width="0.55911" stroke-linecap="round" stroke-linejoin="round"/>
<path d="M107.452 198.128L83.7693 213.531" stroke="#0500FF" stroke-width="0.55911" stroke-linecap="round" stroke-linejoin="round"/>
<path d="M130.207 147.738C131.177 145.427 133.547 142.218 135.475 140.614L158.403 121.505C160.235 119.979 161.103 116.884 160.325 114.627C159.475 112.148 156.637 110.125 154.015 110.137L150.232 110.149C146.173 110.161 139.971 111.819 136.451 113.837L120.772 122.804C119.443 123.565 117.845 123.044 117.222 121.649L114.971 116.65C114.343 115.255 114.145 112.909 114.528 111.43L131.045 48.0572L139.54 31.2771L142 23.2193C142.916 20.2081 141.282 16.7838 138.36 15.6045C137.289 15.1735 135.858 15.5865 135.182 16.5204L125.172 30.3851C121.113 36.0004 115.768 45.8901 113.289 52.3614L105.878 71.7037C105.495 72.6975 104.309 73.5356 103.244 73.5596L72.1082 74.2899L61.0212 87.544L42.4452 130.623C41.1282 133.676 39.6974 138.866 39.2604 142.159L37.8236 152.97C37.3866 156.263 34.8603 160.597 32.2083 162.602L26.8205 166.673C35.89 179.873 46.0131 190.894 55.9926 198.982L69.9171 189.021C72.617 187.087 77.4541 184.782 80.6569 183.902L93.4978 180.37C96.7006 179.49 101.454 177.084 104.064 175.018L121.347 161.345C123.951 159.286 127.136 155.089 128.423 152.024L130.219 147.738H130.207Z" fill="#FFAEFE" stroke="#0500FF" stroke-width="0.55911" stroke-linecap="round" stroke-linejoin="round"/>
<path d="M66.0771 128.333L64.2632 129.386" stroke="#0500FF" stroke-width="0.55911" stroke-linecap="round" stroke-linejoin="round"/>
<path d="M102.857 95.8569L94.4815 100.778C85.9807 105.777 84.071 117.857 77.2943 121.808L69.1707 126.538" stroke="#0500FF" stroke-width="0.55911" stroke-linecap="round" stroke-linejoin="round"/>
<path d="M102.141 75.6297L109.259 53.5576C110.408 49.9896 108.75 46.0685 110.707 42.9854L121.639 25.7743C123.465 22.8948 125.554 17.8123 126.272 14.4838L127.033 10.9638C127.511 8.76077 126.362 5.92916 124.488 4.67799C123.249 3.85186 121.483 4.13322 120.561 5.30058L94.8493 37.9568L84.8758 75.2466" fill="#FFAEFE"/>
<path d="M102.141 75.6297L109.259 53.5576C110.408 49.9896 108.75 46.0685 110.707 42.9854L121.639 25.7743C123.465 22.8948 125.554 17.8123 126.272 14.4838L127.033 10.9638C127.511 8.76076 126.362 5.92916 124.488 4.67799C123.249 3.85186 121.483 4.13322 120.561 5.30058L94.8493 37.9568L84.8758 75.2466" stroke="#0500FF" stroke-width="0.55911" stroke-linecap="round" stroke-linejoin="round"/>
<path d="M92.7228 75.701L98.2962 52.9105C99.4217 48.3009 97.0091 44.7569 99.3319 41.1052L109.21 25.5882C110.826 23.044 112.143 18.4943 112.125 15.4831C112.113 13.5794 110.67 11.4183 108.91 10.6819C107.527 10.1012 105.66 10.6161 104.768 11.8193L82.893 41.1591L74.5479 77.3174" fill="#FFAEFE"/>
<path d="M92.7228 75.701L98.2962 52.9105C99.4217 48.3009 97.0091 44.7569 99.3319 41.1052L109.21 25.5882C110.826 23.044 112.143 18.4943 112.125 15.4831C112.113 13.5794 110.67 11.4183 108.91 10.6819C107.527 10.1012 105.66 10.6161 104.768 11.8193L82.893 41.1591L74.5479 77.3174" stroke="#0500FF" stroke-width="0.55911" stroke-linecap="round" stroke-linejoin="round"/>
<path d="M61.0121 87.543L64.9931 63.5252C65.5738 60.0291 67.687 54.773 69.6925 51.8456L89.7412 22.5718C90.5074 21.4583 92.1717 20.9075 93.4528 21.3505C95.2906 21.9851 96.7992 24.1043 96.7992 26.0499C96.7992 29.3724 95.4283 34.437 93.7521 37.3105L82.9465 55.8087L79.5881 81.0716" fill="#FFAEFE"/>
<path d="M61.0121 87.543L64.9931 63.5252C65.5738 60.0291 67.687 54.773 69.6925 51.8456L89.7412 22.5718C90.5074 21.4583 92.1717 20.9075 93.4528 21.3505C95.2906 21.9851 96.7992 24.1043 96.7992 26.0499C96.7992 29.3724 95.4283 34.437 93.7521 37.3105L82.9465 55.8087L79.5881 81.0716" stroke="#0500FF" stroke-width="0.55911" stroke-linecap="round" stroke-linejoin="round"/>
<path d="M92.7281 75.7012L89.3877 76.7069" stroke="#0500FF" stroke-width="0.55911" stroke-linecap="round" stroke-linejoin="round"/>
<path d="M96.795 44.7456L93.4546 45.7513" stroke="#0500FF" stroke-width="0.55911" stroke-linecap="round" stroke-linejoin="round"/>
<path d="M109.243 43.376L105.903 44.3817" stroke="#0500FF" stroke-width="0.55911" stroke-linecap="round" stroke-linejoin="round"/>
<path d="M131.035 48.0571L127.671 48.5121" stroke="#0500FF" stroke-width="0.55911" stroke-linecap="round" stroke-linejoin="round"/>
<path d="M111.66 72.7241L107.571 73.227" stroke="#0500FF" stroke-width="0.55911" stroke-linecap="round" stroke-linejoin="round"/>
<path d="M73.7323 88.2197L70.8827 90.333" stroke="#0500FF" stroke-width="0.55911" stroke-linecap="round" stroke-linejoin="round"/>
<path d="M79.5842 81.0605C79.3567 82.7787 78.0337 85.0236 76.6388 86.0592L75.9265 86.5861" stroke="#0500FF" stroke-width="0.55911" stroke-linecap="round" stroke-linejoin="round"/>
<path d="M82.9441 55.7969L79.6036 56.8026" stroke="#0500FF" stroke-width="0.55911" stroke-linecap="round" stroke-linejoin="round"/>
<path d="M96.9846 122.263C89.9565 131.53 82.623 144.892 81.3898 161.271" stroke="#0500FF" stroke-width="0.55911" stroke-linecap="round" stroke-linejoin="round"/>
<path d="M101.764 116.463C100.986 117.337 100.177 118.265 99.3572 119.259" stroke="#0500FF" stroke-width="0.55911" stroke-linecap="round" stroke-linejoin="round"/>
<path d="M76.2111 156.208L74.517 166.697" stroke="#0500FF" stroke-width="0.55911" stroke-linecap="round" stroke-linejoin="round"/>
<path d="M228.544 201.654C263.564 173.235 288.682 146.165 284.646 141.193C280.611 136.22 248.95 155.227 213.93 183.646C178.91 212.066 153.792 239.135 157.828 244.108C161.863 249.081 193.524 230.074 228.544 201.654Z" fill="#48FF91" stroke="#2ECCFF" stroke-width="0.55911" stroke-linecap="round" stroke-linejoin="round"/>
<path d="M192.945 41.4571L194.184 40.9063C195.292 40.4154 196.525 40.9482 196.932 42.0917L203.074 59.4225L210.031 94.2997L197.429 98.1789L192.945 41.4571Z" fill="#1B1B1C"/>
<path d="M169.817 37.4518L170.32 12.578C170.374 9.87805 171.727 5.87909 173.319 3.69403C174.804 1.66461 178.043 0.347588 180.521 0.772627L180.653 0.796573C181.844 1.00011 182.892 2.14952 182.975 3.35878L185.394 37.0028C185.765 42.1571 189.321 43.9291 189.584 49.6103L191.141 82.949C191.219 84.6192 192.051 87.1215 192.991 88.5044L196.726 94L197.433 98.1845L172.236 88.9115L169.817 37.4518Z" fill="#1B1B1C"/>
<path d="M237.802 193.997L223.608 175.9C221.214 172.847 218.873 167.196 218.406 163.341L210.031 94.2926L188.258 90.3116L183.014 80.0329L175.603 42.6174C174.669 37.912 171.729 36.0682 170.807 31.4885L164.989 2.59781C164.701 1.16704 163.366 0.460641 162.019 1.02936L160.72 1.57413C158.565 2.48407 156.572 5.1241 156.29 7.44686L155.704 12.3139C155.422 14.6366 155.392 18.438 155.632 20.7608L159.936 62.2411C159.936 68.443 157.332 70.4006 157.512 78.2728L158.218 109.875L154.967 120.1C154.428 121.795 152.806 122.327 151.369 121.286L145.928 117.341L132.296 96.9387C130.201 93.8018 125.616 90.1141 122.102 88.7372L117.3 86.8574C114.529 85.7739 110.272 86.2947 107.848 88.0128L107.237 88.4438C105.459 89.701 104.944 92.2453 106.1 94.0951L121.425 118.616C123.484 121.908 125.753 127.721 126.472 131.534L129.1 145.483C129.818 149.296 132.225 155.025 134.44 158.204L152.375 183.922C154.596 187.107 159.301 191.034 162.828 192.65L166.725 194.434C170.251 196.051 175.297 199.702 177.937 202.552L198.285 224.534C207.618 218.051 217.927 210.305 228.559 201.678C231.732 199.104 234.815 196.542 237.814 194.009L237.802 193.997Z" fill="#1B1B1C"/>
<path d="M113.875 103.524L118.587 100.842C119.598 100.268 120.149 98.8848 119.808 97.7653L117.156 89.1089C117.156 89.1089 110.505 87.5943 107.578 91.7788" stroke="#2ECCFF" stroke-width="0.55911" stroke-linecap="round" stroke-linejoin="round"/>
<path d="M182.105 21.9766H187.971C189.181 21.9766 190.36 22.9464 190.599 24.1317L196.52 53.8306L199.561 87.7021C199.663 88.8335 200.28 90.5217 200.932 91.4556L204.734 96.8673L185.631 91.725L180.59 33.4646L182.105 21.9766Z" fill="#1B1B1C"/>
<path d="M184.317 21.9766L185.401 36.9966C185.772 42.151 189.328 43.923 189.591 49.6041L191.148 82.9428C191.225 84.613 192.058 87.1154 192.997 88.4982L196.733 93.9938" stroke="#2ECCFF" stroke-width="0.55911" stroke-linecap="round" stroke-linejoin="round"/>
<path d="M186.901 87.6495L183.021 80.0407L175.61 42.6252C174.676 37.9198 171.737 36.076 170.815 31.4964L170.138 28.126" stroke="#2ECCFF" stroke-width="0.55911" stroke-linecap="round" stroke-linejoin="round"/>
<path d="M189.434 92.6186L188.26 90.3198" stroke="#2ECCFF" stroke-width="0.55911" stroke-linecap="round" stroke-linejoin="round"/>
<path d="M193.977 41.0264L196.528 53.8314L199.569 87.7029C199.671 88.8343 200.287 90.5225 200.94 91.4564L202.724 93.9947" stroke="#2ECCFF" stroke-width="0.55911" stroke-linecap="round" stroke-linejoin="round"/>
</g>
<defs>
<clipPath id="clip0_2950_78580">
<rect width="284.806" height="244.518" fill="white" transform="translate(0.571106 0.693359)"/>
</clipPath>
</defs>
</svg>
