<svg width="324" height="378" viewBox="0 0 324 378" fill="none" xmlns="http://www.w3.org/2000/svg">
<path d="M142.068 18.6553L216.301 42.2254L307.466 143.761L194.424 321.457C194.424 321.457 119.412 379.524 52.8919 372.231L26.6027 310.383L142.068 18.6553Z" fill="#0500FF" stroke="#0500FF" stroke-width="1.05934" stroke-linecap="round" stroke-linejoin="round"/>
<path d="M149.073 34.6493L213.542 275.368L301.58 130.079L172.717 30.7065L149.073 34.6493Z" fill="#1B1B1C"/>
<path d="M280.865 149.493L216.038 109.089H118.903L264.674 178.032" stroke="#48FF91" stroke-width="1.05934" stroke-linecap="round" stroke-linejoin="round"/>
<path d="M243.479 214.631L187.736 179.888H90.6008L229.5 238.93" stroke="#48FF91" stroke-width="1.05934" stroke-linecap="round" stroke-linejoin="round"/>
<path d="M205.453 279.368L159.425 250.681H66.9867L192.574 297.104" stroke="#48FF91" stroke-width="1.05934" stroke-linecap="round" stroke-linejoin="round"/>
<path d="M154.012 335.756L131.122 321.48H53.342L136.103 347.856" stroke="#48FF91" stroke-width="1.05934" stroke-linecap="round" stroke-linejoin="round"/>
<path d="M100.954 362.994C103.451 328.449 113.228 273.312 144.04 197.324L195.828 69.5854" stroke="#48FF91" stroke-width="1.05934" stroke-linecap="round" stroke-linejoin="round"/>
<path d="M163.521 326.536C170.133 299.184 180.206 266.789 195.397 229.326L245.194 106.482" stroke="#48FF91" stroke-width="1.05934" stroke-linecap="round" stroke-linejoin="round"/>
<path d="M127.729 195.672C139.656 200.628 139.928 207.685 135.429 219.477C139.94 207.685 145.366 203.446 157.083 208.155C145.366 203.446 143.858 196.067 149.259 184.474C144.464 196.314 139.668 200.628 127.741 195.672H127.729Z" fill="#48FF91" stroke="#48FF91" stroke-width="1.05934" stroke-linecap="round" stroke-linejoin="round"/>
<path d="M162.255 285.894C170.87 289.082 172.167 294.743 169.597 303.519C172.167 294.743 174.948 290.578 183.402 293.705C174.948 290.578 174.874 286.005 177.754 277.118C174.874 286.005 170.882 289.07 162.267 285.894H162.255Z" fill="#48FF91" stroke="#48FF91" stroke-width="1.05934" stroke-linecap="round" stroke-linejoin="round"/>
<path d="M205.43 219.476C230.1 219.476 250.098 199.477 250.098 174.808C250.098 150.138 230.1 130.14 205.43 130.14C180.761 130.14 160.762 150.138 160.762 174.808C160.762 199.477 180.761 219.476 205.43 219.476Z" fill="#48FF91"/>
<path d="M199.295 219.732L232.024 138.974" stroke="#0500FF" stroke-width="1.05934" stroke-linecap="round" stroke-linejoin="round"/>
<path d="M180.046 138L249.978 171.075" stroke="#0500FF" stroke-width="1.05934" stroke-linecap="round" stroke-linejoin="round"/>
<path d="M209.78 152.065C221.707 157.021 221.312 164.684 216.813 176.488C221.324 164.697 227.059 161.088 238.776 165.784C227.059 161.075 225.551 153.19 230.952 141.596C226.157 153.437 221.72 157.021 209.78 152.065Z" fill="#0500FF" stroke="#0500FF" stroke-width="1.05934" stroke-linecap="round" stroke-linejoin="round"/>
<path d="M66.8658 377.161C58.3005 377.062 53.3071 376.37 53.3071 376.37C53.3071 376.37 58.3005 377.26 66.8658 377.161Z" fill="white"/>
<path d="M216.714 25.3019H152.864L284.298 123.673C293.419 130.508 295.977 143.091 290.243 152.941L224.513 265.823C166.892 364.763 96.0582 376.789 66.8644 377.16C101.2 377.543 193.07 368.261 252.718 265.823L319.758 150.692C324.912 141.842 323.416 130.62 316.124 123.426L216.702 25.2896L216.714 25.3019Z" fill="#F4F4F7"/>
<path d="M252.715 265.824L319.754 150.692C321.546 147.602 322.523 144.241 322.733 140.854L293.267 142.275C293.168 145.922 292.192 149.592 290.251 152.942L224.522 265.824C166.901 364.764 96.067 376.79 66.8732 377.161C101.209 377.544 193.079 368.262 252.727 265.824H252.715Z" fill="#1B1B1C"/>
<path d="M319.754 150.692C321.546 147.602 322.522 144.241 322.732 140.854L293.267 142.275C293.168 145.922 292.191 149.592 290.251 152.942L242.604 234.764L277.187 223.788L319.754 150.68V150.692Z" fill="#2D9FFF"/>
<path d="M229.605 257.082L264.188 246.119L270.59 235.119L236.008 246.095L229.605 257.082Z" fill="#2D9FFF"/>
<path d="M66.8658 377.161C58.3005 377.062 53.3071 376.37 53.3071 376.37C53.3071 376.37 58.3005 377.26 66.8658 377.161Z" stroke="#0500FF" stroke-width="1.05934" stroke-linecap="round" stroke-linejoin="round"/>
<path d="M216.714 25.3019H152.864L284.298 123.673C293.419 130.508 295.977 143.091 290.243 152.941L224.513 265.823C166.892 364.763 96.0582 376.789 66.8644 377.16C101.2 377.543 193.07 368.261 252.718 265.823L319.758 150.692C324.912 141.842 323.416 130.62 316.124 123.426L216.702 25.2896L216.714 25.3019Z" stroke="#0500FF" stroke-width="1.05934" stroke-linecap="round" stroke-linejoin="round"/>
<path d="M66.8658 377.161C58.3005 377.062 53.3071 376.37 53.3071 376.37C53.3071 376.37 58.3005 377.26 66.8658 377.161Z" fill="white" stroke="#0500FF" stroke-width="1.05934" stroke-linecap="round" stroke-linejoin="round"/>
<path d="M224.533 265.824L290.262 152.943C295.997 143.092 293.438 130.497 284.317 123.675L152.883 25.3032L95.4348 167.033C38.6169 307.18 53.325 376.383 53.325 376.383C53.325 376.383 58.3183 377.075 66.8837 377.174C96.0774 376.815 166.924 364.789 224.533 265.837V265.824Z" stroke="#0500FF" stroke-width="1.05934" stroke-linecap="round" stroke-linejoin="round"/>
<path d="M95.4185 167.019L152.867 25.2895L92.823 2.43623C83.8745 -0.975074 73.8384 3.40029 70.2293 12.287L19.2576 138.035C-37.5603 278.183 53.3088 376.369 53.3088 376.369C53.3088 376.369 38.6006 307.179 95.4185 167.019Z" fill="url(#paint0_linear_2950_74240)"/>
<path d="M290.256 152.943C295.99 143.092 293.432 130.497 284.311 123.675L152.877 25.3032L149.082 34.6596L274.93 128.717C286.016 137.011 285.868 140.954 278.872 153.128L216.048 262.327C183.48 318.947 127.329 374.652 52.1198 366.594C52.6265 373.12 53.3187 376.383 53.3187 376.383C53.3187 376.383 58.312 377.075 66.8773 377.174C96.0711 376.815 166.917 364.789 224.526 265.837L290.256 152.955V152.943Z" fill="#F4F4F7" stroke="#0500FF" stroke-width="1.05934" stroke-linecap="round" stroke-linejoin="round"/>
<path d="M89.431 1.29004L152.861 25.3051H216.712L117.624 1.29004H89.431Z" fill="#2D9FFF" stroke="#0500FF" stroke-width="1.05934" stroke-linecap="round" stroke-linejoin="round"/>
<path d="M66.9949 250.686L5.41847 183.375C-18.3741 298.902 53.3002 376.373 53.3002 376.373C53.3002 376.373 44.4877 334.745 66.9825 250.748V250.699L66.9949 250.686Z" fill="#2D9FFF"/>
<path d="M10.1906 164.141L68.8624 243.899L72.7928 230.871L19.2627 138.037L10.1906 164.141Z" fill="#2D9FFF"/>
<path d="M95.4185 167.019L152.867 25.2895L92.823 2.43623C83.8745 -0.975074 73.8384 3.40029 70.2293 12.287L19.2576 138.035C-37.5603 278.183 53.3088 376.369 53.3088 376.369C53.3088 376.369 38.6006 307.179 95.4185 167.019Z" stroke="#0500FF" stroke-width="1.05934" stroke-linecap="round" stroke-linejoin="round"/>
<defs>
<linearGradient id="paint0_linear_2950_74240" x1="77.6452" y1="163.632" x2="-15.8813" y2="22.0759" gradientUnits="userSpaceOnUse">
<stop stop-color="#48FF91"/>
<stop offset="1" stop-color="#2D9FFF"/>
</linearGradient>
</defs>
</svg>
