<svg xmlns="http://www.w3.org/2000/svg" width="20" height="24" fill="none" viewBox="0 0 20 24"><path fill="#4B4B4B" fill-rule="evenodd" d="M8.944 6.627c2.177 0 3.942 2.086 3.942 4.66 0 2.572-1.765 4.658-3.942 4.658-2.177 0-3.942-2.086-3.942-4.659s1.765-4.659 3.942-4.659Zm0-2.795c3.483 0 6.307 3.337 6.307 7.454 0 1.296-.28 2.515-.772 3.576l2.42 2.861-1.253 1.483-1.255 1.482-2.42-2.86a5.537 5.537 0 0 1-3.027.912c-3.483 0-6.307-3.337-6.307-7.454 0-4.117 2.824-7.454 6.307-7.454Z" clip-rule="evenodd"/></svg>