<svg xmlns="http://www.w3.org/2000/svg" width="148" height="197" fill="none"><g clip-path="url(#a)"><path fill="#1B1B1C" stroke="#0500FF" stroke-linecap="round" stroke-linejoin="round" stroke-width=".41" d="M74.972 155.928v14.957c0 .676-.901 1.229-2.011 1.229s-2.012-.549-2.012-1.229v-14.957h4.023Z"/><path fill="#FFAEFE" stroke="#0500FF" stroke-linecap="round" stroke-linejoin="round" stroke-width=".41" d="M76.94 155.238v8.789c0 1.34-1.782 2.426-3.979 2.426-2.196 0-3.978-1.086-3.978-2.426v-8.789h7.957Z"/><path fill="#0500FF" stroke="#0500FF" stroke-linecap="round" stroke-linejoin="round" stroke-width=".41" d="M70.097 155.238v10.478c.516.327 1.184.561 1.93.672v-11.15h-1.93Z"/><path fill="#FFAEFE" stroke="#0500FF" stroke-linecap="round" stroke-linejoin="round" stroke-width=".41" d="M79.033 146.357v13.416c0 2.044-2.717 3.704-6.073 3.704-3.352 0-6.072-1.66-6.072-3.704v-13.416h12.145Z"/><path fill="#0500FF" stroke="#0500FF" stroke-linecap="round" stroke-linejoin="round" stroke-width=".41" d="M71.773 163.409v-17.046h-3.63v15.665c.88.7 2.155 1.204 3.63 1.381Z"/><path fill="#FFAEFE" stroke="#0500FF" stroke-linecap="round" stroke-linejoin="round" stroke-width=".41" d="M80.829 100.449v54.1c0 2.651-3.524 4.802-7.871 4.802-4.348 0-7.872-2.151-7.872-4.802v-54.1H80.83Z"/><path fill="#0500FF" stroke="#0500FF" stroke-linecap="round" stroke-linejoin="round" stroke-width=".41" d="m80.119 111.807-1.742-5.49h-7.703v-5.868h-4.06v56.944c.975.815 2.474 1.471 4.06 1.754v-15.833c0-15.067 9.445-31.507 9.445-31.507Z"/><path fill="#1B1B1C" stroke="#0500FF" stroke-linecap="round" stroke-linejoin="round" stroke-width=".41" d="m25.555 188.754-3.864 8.044c-.176.364-1.13.27-2.13-.213-1-.484-1.672-1.168-1.496-1.533l3.864-8.043 3.63 1.741-.004.004Z"/><path fill="#FFAEFE" stroke="#0500FF" stroke-linecap="round" stroke-linejoin="round" stroke-width=".41" d="m29.662 184.76-2.27 4.729c-.349.721-2.233.532-4.213-.418-1.979-.951-3.306-2.307-2.958-3.028l2.27-4.729 7.17 3.446Z"/><path fill="#0500FF" stroke="#0500FF" stroke-linecap="round" stroke-linejoin="round" stroke-width=".41" d="m23.497 181.797-2.709 5.634c.381.402.922.816 1.565 1.197l2.881-5.995-1.742-.836h.005Z"/><path fill="#FFAEFE" stroke="#0500FF" stroke-linecap="round" stroke-linejoin="round" stroke-width=".41" d="m35.524 177.377-3.466 7.215c-.529 1.098-3.41.816-6.43-.639-3.023-1.45-5.044-3.52-4.515-4.622l3.466-7.216 10.945 5.262Z"/><path fill="#0500FF" stroke="#0500FF" stroke-linecap="round" stroke-linejoin="round" stroke-width=".41" d="m24.584 183.404 4.405-9.171-3.27-1.573-4.048 8.424c.615.758 1.635 1.582 2.913 2.316v.004Z"/><path fill="url(#b)" stroke="#0500FF" stroke-miterlimit="10" stroke-width=".41" d="m67.179 115.658-30.454 63.386c-.684 1.426-4.417 1.057-8.334-.828-3.917-1.881-6.54-4.565-5.855-5.991l30.453-63.385 14.19 6.818Z"/><path fill="#0500FF" stroke="#0500FF" stroke-linecap="round" stroke-linejoin="round" stroke-width=".41" d="M23.17 174.414c.671.861 1.851 1.864 3.203 2.704l31.642-65.856-3.66-1.758-31.186 64.91Z"/><path fill="#1B1B1C" stroke="#0500FF" stroke-linecap="round" stroke-linejoin="round" stroke-width=".41" d="m123.995 187.009 3.864 8.043c.176.365-.496 1.049-1.495 1.533-1 .483-1.955.578-2.131.213l-3.864-8.044 3.63-1.741-.004-.004Z"/><path fill="#FFAEFE" stroke="#0500FF" stroke-linecap="round" stroke-linejoin="round" stroke-width=".41" d="m123.436 181.313 2.27 4.728c.348.722-.98 2.078-2.959 3.028-1.979.951-3.868 1.14-4.212.418l-2.27-4.728 7.171-3.446Z"/><path fill="#0500FF" stroke="#0500FF" stroke-linecap="round" stroke-linejoin="round" stroke-width=".41" d="m117.267 184.27 2.709 5.634c.549-.049 1.213-.209 1.913-.475l-2.88-5.995-1.742.836Z"/><path fill="#FFAEFE" stroke="#0500FF" stroke-linecap="round" stroke-linejoin="round" stroke-width=".41" d="m121.347 172.114 3.466 7.216c.529 1.098-1.491 3.168-4.515 4.622-3.024 1.451-5.901 1.738-6.429.639l-3.467-7.215 10.945-5.262Z"/><path fill="#0500FF" stroke="#0500FF" stroke-linecap="round" stroke-linejoin="round" stroke-width=".41" d="m119.213 184.426-4.405-9.171-3.27 1.574 4.048 8.424c.975-.004 2.254-.287 3.631-.827h-.004Z"/><path fill="url(#c)" stroke="#0500FF" stroke-miterlimit="10" stroke-width=".41" d="m92.934 108.843 30.453 63.385c.684 1.426-1.934 4.11-5.856 5.991-3.921 1.88-7.65 2.253-8.334.827l-30.453-63.385 14.19-6.818Z"/><path fill="#0500FF" stroke="#0500FF" stroke-linecap="round" stroke-linejoin="round" stroke-width=".41" d="M111.317 179.911c1.09.016 2.614-.283 4.114-.816l-31.642-65.856-3.659 1.758 31.191 64.914h-.004Z"/><path fill="#1B1B1C" stroke="#0500FF" stroke-linecap="round" stroke-linejoin="round" stroke-width=".41" d="M92.941 108.843 86.82 96.104l-8.909 4.278v-.455H68.14v.512l-9.027-4.34-6.122 12.74c-.684 1.426 1.934 4.11 5.855 5.991 3.918 1.881 7.65 2.254 8.335.828l2.598-5.409h6.375l2.598 5.409c.685 1.426 4.417 1.057 8.335-.828 3.917-1.881 6.54-4.565 5.855-5.991v.004Z"/><path fill="#1B1B1C" stroke="#0500FF" stroke-linecap="round" stroke-linejoin="round" stroke-width=".41" d="M72.957 101.946c7.735 0 14.005-2.282 14.005-5.098 0-2.815-6.27-5.097-14.005-5.097-7.735 0-14.006 2.282-14.006 5.097 0 2.816 6.27 5.098 14.006 5.098Z"/><path fill="#0500FF" stroke="#0500FF" stroke-linecap="round" stroke-linejoin="round" stroke-width=".41" d="M62.398 96.879c0 2.122 4.728 3.843 10.559 3.843 5.83 0 10.56-1.72 10.56-3.843v-2.311h-21.12v2.31Z"/><path fill="#2D9FFF" stroke="#0500FF" stroke-linecap="round" stroke-linejoin="round" stroke-width=".41" d="M72.957 98.412c5.832 0 10.56-1.72 10.56-3.843s-4.728-3.844-10.56-3.844c-5.832 0-10.56 1.72-10.56 3.844 0 2.122 4.728 3.843 10.56 3.843Z"/><path fill="#1B1B1C" stroke="#0500FF" stroke-linecap="round" stroke-linejoin="round" stroke-width=".41" d="M82.055 94.567s0-.02-.005-.033c0-.078-.012-.155-.028-.23-.59-4.478-4.417-7.936-9.056-7.936-4.638 0-8.47 3.458-9.055 7.937a1.099 1.099 0 0 0-.03.23v.032c0 1.828 4.07 3.307 9.09 3.307 5.019 0 9.088-1.48 9.088-3.307h-.004Z"/><path fill="#1B1B1C" stroke="#0500FF" stroke-linecap="round" stroke-linejoin="round" stroke-width=".41" d="M67.54 90.004c0 1.09 2.425 1.971 5.42 1.971 2.996 0 5.422-.885 5.422-1.97V70.011H67.539v19.992Z"/><path fill="#1B1B1C" stroke="#0500FF" stroke-linecap="round" stroke-linejoin="round" stroke-width=".41" d="M72.96 71.984c2.995 0 5.422-.883 5.422-1.971 0-1.089-2.428-1.971-5.422-1.971-2.993 0-5.42.882-5.42 1.97 0 1.09 2.426 1.972 5.42 1.972Z"/><path fill="#1B1B1C" stroke="#0500FF" stroke-linecap="round" stroke-linejoin="round" stroke-width=".41" d="M62.8 72.022c0 2.041 4.55 3.697 10.159 3.697 5.61 0 10.158-1.656 10.158-3.697v-4.88H62.8v4.88ZM27.787 93.215a6.716 6.716 0 1 0-10.49-8.388 6.716 6.716 0 0 0 10.49 8.388Z"/><path fill="#48FF91" stroke="#0500FF" stroke-miterlimit="10" stroke-width=".41" d="m18.051 75.002-8.478 5.763 5.977 8.798c.587.86 2.96.273 5.3-1.317 2.34-1.591 3.764-3.58 3.18-4.442l-5.977-8.798-.002-.004Z"/><path fill="#48FF91" stroke="#0500FF" stroke-miterlimit="10" stroke-width=".41" d="M14.88 79.443c2.341-1.592 3.764-3.581 3.178-4.444-.587-.863-2.96-.272-5.302 1.32-2.341 1.59-3.764 3.58-3.178 4.443.587.862 2.96.272 5.302-1.32Z"/><path fill="#1B1B1C" d="M14.43 78.792c1.365-.927 2.195-2.085 1.854-2.587-.341-.502-1.723-.157-3.088.77-1.364.928-2.194 2.086-1.853 2.588.34.501 1.723.156 3.088-.77Z"/><path fill="#48FF91" stroke="#0500FF" stroke-miterlimit="10" stroke-width=".41" d="M21.307 89.774c2.17 3.56 5.838 5.329 8.428 4.163l9.906-4.456-9.829-15.744-8.342 6.634c-2.223 1.77-2.335 5.84-.164 9.397l.001.006Z"/><path fill="#0500FF" stroke="#0500FF" stroke-miterlimit="10" stroke-width=".41" d="m37.27 85.683-13.585 6.854c.911.75 1.9 1.278 2.871 1.546l12.42-5.672-1.706-2.734v.006Z"/><path fill="url(#d)" stroke="#0500FF" stroke-miterlimit="10" stroke-width=".41" d="M31.048 83.835c3.85 6.32 10.362 9.46 14.96 7.392l8.365-3.763L38.515 61.44l-7.177 5.709c-3.948 3.139-4.14 10.367-.287 16.684l-.003.003Z"/><path fill="#0500FF" stroke="#0500FF" stroke-miterlimit="10" stroke-width=".41" d="m51.465 82.704-14.452 7.294c1.562.966 3.184 1.581 4.753 1.792l11.918-5.444-2.219-3.642Z"/><path fill="url(#e)" stroke="#0500FF" stroke-miterlimit="10" stroke-width=".41" d="M134.119 21.033c-7.568-12.42-20.664-18.248-29.25-13.016-8.586 5.232-9.412 19.541-1.843 31.962 7.568 12.42 20.663 18.248 29.25 13.016 8.586-5.232 9.411-19.542 1.843-31.962Z"/><path stroke="#0500FF" stroke-miterlimit="10" stroke-width=".41" d="M124.651 54.898c1.96-.18 3.822-.764 5.501-1.788 8.258-5.033 9.054-18.798 1.773-30.747-7.281-11.95-19.882-17.555-28.14-12.521-1.681 1.026-3.055 2.41-4.109 4.07"/><path stroke="#0500FF" stroke-miterlimit="10" stroke-width=".41" d="M99.277 14.817a12.076 12.076 0 0 1 3.425-3.148c7.937-4.834 20.037.55 27.03 12.027 6.992 11.477 6.229 24.702-1.702 29.535a12.023 12.023 0 0 1-4.37 1.6"/><path stroke="#0500FF" stroke-miterlimit="10" stroke-width=".41" d="M98.595 16.838a10.931 10.931 0 0 1 1.932-1.498c7.284-4.438 18.388.506 24.809 11.038 6.418 10.536 5.717 22.672-1.563 27.112-.707.432-1.448.774-2.218 1.029"/><path stroke="#0500FF" stroke-miterlimit="10" stroke-width=".41" d="M122.633 54.71a11.369 11.369 0 0 0 3.272-1.35c7.609-4.635 8.342-17.317 1.633-28.321-6.707-11.008-18.313-16.17-25.919-11.533a11.54 11.54 0 0 0-2.701 2.29"/><path stroke="#0500FF" stroke-miterlimit="10" stroke-width=".41" d="M98.327 17.953a10.64 10.64 0 0 1 1.117-.787c6.956-4.238 17.566.484 23.698 10.544 6.129 10.063 5.464 21.656-1.495 25.897-.392.242-.795.45-1.212.63"/><path fill="#1B1B1C" d="m118.925 24.124 2.277-15.57c-5.704-2.951-11.684-3.372-16.335-.534-4.819 2.936-7.19 8.73-7.012 15.442l21.07.662Z"/><path fill="#1B1B1C" stroke="#0500FF" stroke-miterlimit="10" stroke-width=".41" d="M125.414 26.343c-6.478-10.631-17.876-15.503-25.46-10.883-7.583 4.621-8.479 16.985-2.001 27.616 6.478 10.63 17.876 15.503 25.459 10.882 7.584-4.62 8.48-16.984 2.002-27.615Z"/><path stroke="#0500FF" stroke-miterlimit="10" stroke-width=".41" d="M105.927 51.766s8.806-8.835 12.56-21.331c3.043-10.138-1.044-12.802-1.044-12.802M96.036 39.41s5.529-6.527 8.383-14.985c2.628-7.788.253-10.605.253-10.605M118.696 55.587s5.792-5.657 8.644-14.111c2.087-6.18-.011-11.483-.011-11.483"/><path stroke="#0500FF" stroke-miterlimit="10" stroke-width=".41" d="M95.055 21.211s13.245 1.079 23.431 9.224C129.95 39.6 128.434 47.9 128.434 47.9M103.964 13.926c4.735 1.204 11.237 3.544 16.822 8.01 1.872 1.497 3.397 2.968 4.643 4.389M94.156 33.576c4.771 1.165 11.548 3.51 17.337 8.138 6.443 5.151 8.788 10.033 9.603 13.318"/><path stroke="#0500FF" stroke-miterlimit="10" stroke-width=".41" d="M125.418 26.337c-6.478-10.631-17.876-15.503-25.46-10.883-7.583 4.621-8.479 16.985-2.001 27.616 6.477 10.63 17.876 15.503 25.459 10.882 7.584-4.62 8.48-16.985 2.002-27.615Z"/><path fill="url(#f)" stroke="#0500FF" stroke-miterlimit="10" stroke-width=".41" d="M99.674 42.02c-7.577-12.432-7.196-26.655.571-32.831l-.007-.006-64.36 51.196c-4.903 3.902-5.145 12.879-.36 20.733 4.786 7.852 12.877 11.755 18.588 9.186l75.007-33.726-.007-.005c-9.048 4.066-21.861-2.113-29.435-14.549l.003.002Z"/><path fill="#0500FF" stroke="#0500FF" stroke-miterlimit="10" stroke-width=".41" d="M90.288 63.14c-16.884 8.623-20.426 7.606 1.523-6.485l7.253-4.656 3.747 4.743-12.523 6.397ZM111.395 54.122l-68.547 34.59c2.184 1.368 4.473 2.18 6.651 2.343l72.849-33.264c-3.574-.156-7.352-1.435-10.953-3.67Z"/><path fill="#2D9FFF" stroke="#0500FF" stroke-miterlimit="10" stroke-width=".41" d="M102.843 4.705c-9.852 6.004-10.8 22.423-2.113 36.677 8.687 14.253 23.713 20.938 33.564 14.937 9.852-6.004 10.799-22.423 2.113-36.677C127.72 5.39 112.694-1.296 102.843 4.705Zm29.428 48.297c-8.586 5.234-21.683-.596-29.25-13.015-7.57-12.422-6.744-26.729 1.842-31.962 8.586-5.233 21.684.596 29.25 13.016 7.57 12.421 6.744 26.728-1.842 31.961Z"/><path fill="url(#g)" stroke="#0500FF" stroke-miterlimit="10" stroke-width=".41" d="m101.345 5.76-.007-.005-10.321 8.21c-7.884 6.382-8.245 20.915-.493 33.634 7.749 12.717 20.834 19.06 30.117 14.983l12.032-5.41-.006-.005c-9.817 4.411-23.718-2.291-31.941-15.786-8.22-13.492-7.804-28.92.619-35.621Z"/><path fill="#0500FF" stroke="#0500FF" stroke-miterlimit="10" stroke-width=".41" d="m113.24 54.378-10.903 5.5c4.045 2.552 8.307 3.934 12.29 3.92l11.6-5.296c-4.208.02-8.714-1.431-12.987-4.124Z"/><path fill="url(#h)" stroke="#0500FF" stroke-miterlimit="10" stroke-width=".41" d="M48.21 92.319c2.41-.877 3.279-4.57 1.939-8.249-1.34-3.68-4.376-5.95-6.79-5.072l-4.077 1.483 4.848 13.321 4.077-1.483h.004Z"/><path fill="#FFAEFE" stroke="#0500FF" stroke-miterlimit="10" stroke-width=".41" d="M44.127 93.801c2.41-.877 3.277-4.57 1.938-8.249-1.339-3.679-4.377-5.95-6.787-5.073-2.409.877-3.277 4.57-1.938 8.249 1.34 3.679 4.378 5.95 6.787 5.073Z"/><path fill="#0500FF" stroke="#0500FF" stroke-miterlimit="10" stroke-width=".41" d="M43.276 91.471c1.567-.57 2.132-2.972 1.261-5.365-.87-2.392-2.847-3.869-4.414-3.298-1.567.57-2.132 2.972-1.261 5.364.87 2.393 2.847 3.87 4.414 3.3Z"/><path stroke="#0500FF" stroke-miterlimit="10" stroke-width=".41" d="m41.705 80.558 2.49-.905M43.55 81.693l2.492-.905M45.33 83.944l2.496-.906M46.508 87.14l2.491-.906M46.64 89.92l2.492-.91M45.973 92.126l2.492-.906"/></g><defs><linearGradient id="b" x1="44.962" x2="63.659" y1="144.628" y2="147.714" gradientUnits="userSpaceOnUse"><stop stop-color="#FFAEFE"/><stop offset="1" stop-color="#FFF465"/></linearGradient><linearGradient id="c" x1="102.829" x2="108.226" y1="144.594" y2="141.898" gradientUnits="userSpaceOnUse"><stop stop-color="#FFAEFE"/><stop offset="1" stop-color="#FFF465"/></linearGradient><linearGradient id="d" x1="35.339" x2="27.733" y1="73.489" y2="62.077" gradientUnits="userSpaceOnUse"><stop stop-color="#48FF91"/><stop offset=".16" stop-color="#46F898"/><stop offset=".39" stop-color="#41E6AC"/><stop offset=".66" stop-color="#39C9CD"/><stop offset=".98" stop-color="#2DA2FB"/><stop offset="1" stop-color="#2D9FFF"/></linearGradient><linearGradient id="e" x1="118.165" x2="123.705" y1="29.675" y2="41.014" gradientUnits="userSpaceOnUse"><stop stop-color="#FFAEFE"/><stop offset="1" stop-color="#FFF465"/></linearGradient><linearGradient id="f" x1="70.942" x2="63.333" y1="49.76" y2="38.345" gradientUnits="userSpaceOnUse"><stop stop-color="#48FF91"/><stop offset=".16" stop-color="#46F898"/><stop offset=".39" stop-color="#41E6AC"/><stop offset=".66" stop-color="#39C9CD"/><stop offset=".98" stop-color="#2DA2FB"/><stop offset="1" stop-color="#2D9FFF"/></linearGradient><linearGradient id="g" x1="98.886" x2="91.28" y1="31.138" y2="19.726" gradientUnits="userSpaceOnUse"><stop stop-color="#48FF91"/><stop offset=".16" stop-color="#46F898"/><stop offset=".39" stop-color="#41E6AC"/><stop offset=".66" stop-color="#39C9CD"/><stop offset=".98" stop-color="#2DA2FB"/><stop offset="1" stop-color="#2D9FFF"/></linearGradient><linearGradient id="h" x1="47.191" x2="45.416" y1="90.417" y2="84.558" gradientUnits="userSpaceOnUse"><stop stop-color="#FFAEFE"/><stop offset="1" stop-color="#FFF465"/></linearGradient><clipPath id="a"><path fill="#fff" d="M.252 0h147.374v197H.252z"/></clipPath></defs></svg>