<svg xmlns="http://www.w3.org/2000/svg" width="239" height="162" fill="none"><g clip-path="url(#a)"><path fill="#1B1B1C" stroke="#0500FF" stroke-linecap="round" stroke-linejoin="round" stroke-width=".34" d="m227.527 71.51-3.956 1.54-16.417-1.44 3.951-1.534 16.422 1.435Z"/><path fill="#1B1B1C" stroke="#0500FF" stroke-linecap="round" stroke-linejoin="round" stroke-width=".34" d="m237.218 58.85-9.7 12.66-16.421-1.435 9.704-12.66 16.417 1.435Z"/><path fill="#1B1B1C" stroke="#0500FF" stroke-linecap="round" stroke-linejoin="round" stroke-width=".34" d="m237.71 54.579-.494 4.273-16.416-1.435.493-4.273 16.417 1.435ZM182.232 54.058l-9.7 12.66-7.812-24.56 9.699-12.664 7.813 24.564Z"/><path fill="#1B1B1C" stroke="#0500FF" stroke-linecap="round" stroke-linejoin="round" stroke-width=".34" d="m198.636 55.492-9.7 12.66-16.407-1.435 9.699-12.66 16.408 1.435ZM201.798 51.453l-3.159 4.037-16.408-1.435 3.16-4.042 16.407 1.44Z"/><path fill="#48FF91" stroke="#0500FF" stroke-linecap="round" stroke-linejoin="round" stroke-width=".34" d="m185.394 50.016-3.159 4.042-7.813-24.564 3.956-1.535 7.016 22.057Z"/><path fill="#0500FF" d="m175.682 33.477 2.689-5.518 1.444 4.54-2.675 5.558-1.458-4.58Z"/><path fill="#1B1B1C" stroke="#0500FF" stroke-linecap="round" stroke-linejoin="round" stroke-width=".34" d="m215.924 109.848-9.7 12.664-17.286-54.36 9.7-12.66 17.286 54.356ZM238.095 111.791l-9.705 12.66-22.165-1.937 9.7-12.665 22.17 1.942Z"/><path fill="url(#b)" d="m230.709 32.535 7.007 22.043-16.417-1.435 17.291 54.374-19.504-1.706L201.8 51.455l-16.407-1.44-7.016-22.056 52.332 4.576Z"/><path fill="#48FF91" stroke="#0500FF" stroke-linecap="round" stroke-linejoin="round" stroke-width=".34" d="m219.086 105.809-3.16 4.037-17.285-54.356 3.159-4.037 17.286 54.356Z"/><path fill="#0500FF" d="m201.918 65.788 2.236-6.939-2.354-7.396-3.159 4.037 3.277 10.298Z"/><path fill="#1B1B1C" stroke="#0500FF" stroke-linecap="round" stroke-linejoin="round" stroke-width=".34" d="m238.593 107.517-.494 4.273-22.169-1.942 3.159-4.037 19.504 1.706Z"/><path fill="#48FF91" d="m233.675 92.062-1.484-4.68-24.881-18.617 1.484 4.676 24.881 18.621Z"/><path stroke="#0500FF" stroke-linecap="round" stroke-linejoin="round" stroke-width=".34" d="m230.709 32.535 7.007 22.043-16.417-1.435 17.291 54.374-19.504-1.706L201.8 51.455l-16.407-1.44-7.016-22.056 52.332 4.576Z"/><path fill="#1B1B1C" stroke="#0500FF" stroke-linecap="round" stroke-linejoin="round" stroke-width=".34" d="m124.35 70.944-.815 3.906c.511-2.457.19-5.775-1.073-9.966l.892-3.02c1.181 3.721 1.476 6.78.996 9.085v-.005ZM133.057 49.198l-9.7 12.665-13.859-43.593 9.7-12.664 13.859 43.592Z"/><path fill="#48FF91" stroke="#0500FF" stroke-linecap="round" stroke-linejoin="round" stroke-width=".34" d="M136.608 46.412 133.05 49.2 119.191 5.608l3.956-1.535 13.461 42.339Z"/><path fill="#1B1B1C" stroke="#0500FF" stroke-linecap="round" stroke-linejoin="round" stroke-width=".34" d="m132.835 61.067-9.699 12.66c1.774-2.313 1.969-6.364.217-11.864l9.7-12.66c1.747 5.5 1.552 9.551-.218 11.864Z"/><path fill="#48FF91" stroke="#0500FF" stroke-linecap="round" stroke-linejoin="round" stroke-width=".34" d="m134.446 60.87-3.472 1.725c3.368-1.684 4.318-6.35 2.078-13.397l3.557-2.789c2.372 7.89 1.426 12.683-2.163 14.457v.005Z"/><path fill="#0500FF" d="M130.974 62.597c1.046-.525 3.454-1.715 3.472-1.724 2.58-1.277 3.784-4.124 3.381-8.55l-3.716 1.489c.584 4.48-.57 7.5-3.137 8.785ZM133.053 49.198l3.557-2.789.729 2.789-3.589 2.543-.697-2.543Z"/><path fill="#1B1B1C" stroke="#0500FF" stroke-linecap="round" stroke-linejoin="round" stroke-width=".34" d="m144.289 84.528-9.7 12.664-2.395-7.527 9.705-12.66 2.39 7.523ZM166.569 86.477l-9.699 12.66-22.274-1.947 9.7-12.664 22.273 1.95Z"/><path fill="#1B1B1C" stroke="#0500FF" stroke-linecap="round" stroke-linejoin="round" stroke-width=".34" d="m147.456 80.49-3.159 4.037-2.39-7.522 2.232-6.953 3.317 10.438Z"/><path fill="#1B1B1C" stroke="#0500FF" stroke-linecap="round" stroke-linejoin="round" stroke-width=".34" d="m167.061 82.203-.498 4.272-22.274-1.95 3.159-4.038 19.613 1.716ZM90.9 51.064l-9.699 12.66-15.679-49.3 9.7-12.664 15.679 49.304Z"/><path fill="#48FF91" stroke="#0500FF" stroke-linecap="round" stroke-linejoin="round" stroke-width=".34" d="m94.461 48.276-3.557 2.788-15.68-49.305L79.182.225l15.28 48.05Z"/><path fill="#1B1B1C" stroke="#0500FF" stroke-linecap="round" stroke-linejoin="round" stroke-width=".34" d="m140.036 80.298-9.7 12.66c-3.073 4.01-8.047 5.486-14.656 4.907-7.762-.68-14.733-4.029-20.59-9.804-5.857-5.776-10.596-13.968-13.89-24.338l9.699-12.66c3.295 10.37 8.039 18.567 13.891 24.338 5.857 5.775 12.827 9.125 20.59 9.804 6.608.58 11.583-.896 14.656-4.907Z"/><path fill="url(#c)" d="m142.764 5.788 24.297 76.416-19.608-1.715-3.317-10.438c-3.87 9.397-9.184 11.669-16.929 10.995-6.757-.688-14.334-4.346-19.34-9.189-5.577-5.495-10.103-13.728-13.412-23.586L79.18.225 98.801 1.94l13.32 41.895c3.232 10.275 9.578 17.082 17.196 17.766 7.545.66 10.559-4.332 7.3-15.19L123.156 4.072l19.613 1.716h-.005Z"/><path fill="#48FF91" d="M145.675 14.948 132.196 4.864l-5.391-.47 20.355 15.23-1.485-4.676Z"/><path fill="#48FF91" stroke="#0500FF" stroke-linecap="round" stroke-linejoin="round" stroke-width=".34" d="M144.135 70.052 141.904 77c-2.666 6.49-8.342 8.916-16.521 8.201-7.763-.679-14.733-4.028-20.59-9.804-5.857-5.775-10.596-13.968-13.891-24.337l3.558-2.788c3.304 9.858 7.834 18.09 13.411 23.586 5.006 4.843 12.583 8.5 19.34 9.188 7.745.674 13.059-1.598 16.929-10.994h-.005Z"/><path stroke="#0500FF" stroke-linecap="round" stroke-linejoin="round" stroke-width=".34" d="m142.764 5.788 24.297 76.416-19.608-1.715-3.317-10.438c-3.87 9.397-9.184 11.669-16.929 10.995-6.757-.688-14.334-4.346-19.34-9.189-5.577-5.495-10.103-13.728-13.412-23.586L79.18.225 98.801 1.94l13.32 41.895c3.232 10.275 9.578 17.082 17.196 17.766 7.545.66 10.559-4.332 7.3-15.19L123.156 4.072l19.613 1.716h-.005Z"/><path fill="#1B1B1C" stroke="#0500FF" stroke-linecap="round" stroke-linejoin="round" stroke-width=".34" d="m197.454 90.68-4.074 1.526-18.05-1.576 1.38-1.765 20.744 1.815Z"/><path fill="#1B1B1C" stroke="#0500FF" stroke-linecap="round" stroke-linejoin="round" stroke-width=".34" d="M154.332 82.642c.593-.32 1.186-.638 1.779-.96.489-.262.973-.524 1.462-.791 1.249-.675 3.177-.95 5.662-.734 6.631.58 11.605 3.875 13.484 8.709l-1.381 1.76c-1.724-4.43-7.486-8.21-14.724-8.816-2.67-.245-4.834.05-6.278.832h-.004Z"/><path fill="#1B1B1C" stroke="#0500FF" stroke-linecap="round" stroke-linejoin="round" stroke-width=".34" d="m207.159 78.02-9.7 12.66-20.743-1.816 9.699-12.66 20.744 1.815Z"/><path fill="#0500FF" stroke="#0500FF" stroke-linecap="round" stroke-linejoin="round" stroke-width=".34" d="m207.539 73.74-.375 4.282-20.744-1.815 3.073-4.046 18.046 1.58Z"/><path fill="#1B1B1C" stroke="#0500FF" stroke-linecap="round" stroke-linejoin="round" stroke-width=".34" d="m156.48 81.789 9.699-12.66c1.001-1.308 3.359-1.933 6.754-1.634 6.63.58 11.605 3.874 13.483 8.708l-9.7 12.66c-1.878-4.834-6.848-8.129-13.483-8.708-3.395-.299-5.753.326-6.753 1.634ZM188.28 123.745l-.856 3.616c.159-.678.109-1.475-.172-2.389-1.064-3.309-3.987-5.536-9.989-7.455l2.245-1.729c5.517 1.792 7.821 3.607 8.636 6.165.213.674.258 1.271.131 1.797l.005-.005Z"/><path fill="#1B1B1C" stroke="#0500FF" stroke-linecap="round" stroke-linejoin="round" stroke-width=".34" d="m165.72 70.107.855-3.603c.58-2.426 3.648-3.584 8.188-3.164 7.242.607 13.004 4.391 14.724 8.818l-3.069 4.046c-1.878-4.834-6.848-8.129-13.483-8.708-4.155-.362-6.753.647-7.22 2.611h.005ZM179.514 115.783l-2.245 1.729-18.3-6.129 2.232-1.738 18.313 6.138Z"/><path fill="#1B1B1C" stroke="#0500FF" stroke-linecap="round" stroke-linejoin="round" stroke-width=".34" d="m197.559 111.959-9.7 12.66c.525-.688.634-1.58.286-2.675-.815-2.557-3.119-4.372-8.637-6.165l9.7-12.66c5.518 1.793 7.822 3.608 8.636 6.165.349 1.095.24 1.987-.285 2.675Z"/><path fill="#1B1B1C" stroke="#0500FF" stroke-linecap="round" stroke-linejoin="round" stroke-width=".34" d="m189.209 103.117-9.7 12.665-18.313-6.138 9.7-12.66 18.313 6.133Z"/><path fill="#48FF91" stroke="#0500FF" stroke-linecap="round" stroke-linejoin="round" stroke-width=".34" d="M199.813 111.034c-1.087.584-2.169 1.168-3.25 1.752 1.335-.72 1.806-1.897 1.294-3.499-.815-2.557-3.118-4.373-8.636-6.165l2.204-4.078c6.007 1.919 8.926 4.146 9.99 7.455.665 2.159.041 3.657-1.598 4.54l-.004-.005Z"/><path fill="#0500FF" d="m191.818 104.101 2.059-4.164 2.725 1.25-2.381 4.037-2.403-1.123Z"/><path fill="#0500FF" stroke="#0500FF" stroke-linecap="round" stroke-linejoin="round" stroke-width=".34" d="m191.416 99.042-2.204 4.074-18.314-6.133 2.218-4.074 18.3 6.133Z"/><path fill="#1B1B1C" stroke="#0500FF" stroke-linecap="round" stroke-linejoin="round" stroke-width=".34" d="m137.372 66.62 9.7-12.66c-2.974 3.883-3.232 9.781-.734 17.639 4.065 12.782 12.289 21.25 24.555 25.383l-9.699 12.66c-12.267-4.137-20.491-12.601-24.555-25.383-2.499-7.862-2.241-13.76.733-17.64Z"/><path fill="#48FF91" stroke="#0500FF" stroke-linecap="round" stroke-linejoin="round" stroke-width=".34" d="M151.001 50.728c.996-.52 1.992-1.046 2.987-1.57-1.104.583-2.05 1.28-2.81 2.1-3.372 3.603-3.535 9.926-1.272 17.557 3.571 11.46 12.528 20.671 23.219 24.098l-2.217 4.073c-12.267-4.137-20.491-12.6-24.555-25.383-2.68-8.423-2.191-14.592 1.412-18.44.892-.955 1.973-1.765 3.245-2.43l-.009-.005Z"/><path fill="#1B1B1C" stroke="#0500FF" stroke-linecap="round" stroke-linejoin="round" stroke-width=".34" d="m217.04 126.638-9.7 12.66c-3.652 4.766-11.007 6.902-21.658 5.97-19.549-1.711-35.775-13.212-41.13-30.054l9.7-12.66c5.355 16.837 21.581 28.343 41.13 30.054 10.655.932 18.01-1.204 21.658-5.97Z"/><path fill="#0500FF" stroke="#0500FF" stroke-linecap="round" stroke-linejoin="round" stroke-width=".34" d="M220.126 118.222c-.281 1.204-.566 2.404-.847 3.608-1.892 8.07-10.148 11.976-23.894 10.772-19.549-1.711-35.775-13.212-41.13-30.054l3.956-1.534c4.716 14.814 20.128 25.763 39.003 27.433 13.248 1.141 21.115-2.553 22.912-10.225Z"/><path fill="#2D9FFF" stroke="#0500FF" stroke-linecap="round" stroke-linejoin="round" stroke-width=".34" d="M196.098 83.819c11.198 3.82 19.45 11.456 23.007 22.622 4.911 15.471-3.05 23.632-21.893 22.007-18.875-1.671-34.287-12.62-39.003-27.434l18.363 1.607c3.386 6.246 7.233 8.541 15.566 9.247 6.762.625 10.596-1.055 9.265-5.368-1.064-3.309-3.988-5.536-9.989-7.455l-18.296-6.128c-10.691-3.431-19.643-12.638-23.219-24.098-2.263-7.632-2.1-13.955 1.272-17.558 3.385-3.62 10.279-4.897 19.3-4.272 9.12.964 17.109 3.485 23.183 8.043 6.074 4.558 10.8 11.569 13.882 18.711l-18.046-1.58c-1.725-4.43-7.486-8.21-14.724-8.816-5.88-.544-9.292 1.557-8.025 5.63 1.1 3.413 4.621 6.133 10.026 8.034l19.336 6.812-.005-.004Z"/><path fill="#48FF91" stroke="#0500FF" stroke-linecap="round" stroke-linejoin="round" stroke-width=".34" d="M179.534 123.776c-10.397-4.847-18.204-12.958-21.323-22.762l-3.956 1.534c3.712 11.669 12.642 20.771 24.279 25.831l1-4.603Z"/><path fill="#0500FF" d="m173.765 126.002 2.159-4.101-2.607-1.616-2.458 3.916 2.906 1.801Z"/><path fill="#48FF91" d="M192.138 111.867c-8.338-.706-12.18-3.001-15.566-9.247l-12.628-1.104 36.223 27.103c16.702.539 23.582-7.545 18.938-22.183-3.557-11.167-11.809-18.802-23.007-22.622l-19.336-6.812c-5.404-1.901-8.926-4.622-10.026-8.034-1.267-4.079 2.146-6.174 8.026-5.631 7.242.606 13.003 4.39 14.723 8.817l18.047 1.58c-3.083-7.143-7.804-14.154-13.882-18.712-6.07-4.558-14.059-7.079-23.179-8.043-9.026-.625-15.915.652-19.3 4.273-3.372 3.603-3.535 9.926-1.272 17.557 3.571 11.46 12.528 20.671 23.219 24.098l18.296 6.128c6.006 1.919 8.925 4.146 9.989 7.455 1.331 4.314-2.503 5.997-9.265 5.368v.009Z"/><path stroke="#0500FF" stroke-linecap="round" stroke-linejoin="round" stroke-width=".34" d="M196.098 83.819c11.198 3.82 19.45 11.456 23.007 22.622 4.911 15.471-3.05 23.632-21.893 22.007-18.875-1.671-34.287-12.62-39.003-27.434l18.363 1.607c3.386 6.246 7.233 8.541 15.566 9.247 6.762.625 10.596-1.055 9.265-5.368-1.064-3.309-3.988-5.536-9.989-7.455l-18.296-6.128c-10.691-3.431-19.643-12.638-23.219-24.098-2.263-7.632-2.1-13.955 1.272-17.558 3.385-3.62 10.279-4.897 19.3-4.272 9.12.964 17.109 3.485 23.183 8.043 6.074 4.558 10.8 11.569 13.882 18.711l-18.046-1.58c-1.725-4.43-7.486-8.21-14.724-8.816-5.88-.544-9.292 1.557-8.025 5.63 1.1 3.413 4.621 6.133 10.026 8.034l19.336 6.812-.005-.004Z"/><path fill="#1B1B1C" stroke="#0500FF" stroke-linecap="round" stroke-linejoin="round" stroke-width=".34" d="m131.411 98.477-9.7 12.664-5.449-.48 9.699-12.66 5.45.476ZM131.912 94.203l-.498 4.273-5.45-.475 1.824-4.155 4.124.357ZM94.154 89.454l9.7-12.66c-1.453 1.897-2.566 4.454-3.331 7.876l-9.7 12.66c.765-3.422 1.878-5.98 3.331-7.876Z"/><path fill="#1B1B1C" stroke="#0500FF" stroke-linecap="round" stroke-linejoin="round" stroke-width=".34" d="m102.868 114.506 9.7-12.66c2.399-3.132 6.844-4.418 13.393-3.843l-9.7 12.66c-6.554-.575-10.998.715-13.393 3.843ZM108.637 73.133c.525-.217 1.919-.797 3.802-1.661-4.119 1.896-7.251 6.255-9.333 15.489l-2.58-2.29c1.462-6.527 4.191-9.922 8.111-11.538Z"/><path fill="#1B1B1C" stroke="#0500FF" stroke-linecap="round" stroke-linejoin="round" stroke-width=".34" d="M110.825 105.679c.28-1.208.556-2.417.837-3.625 1.439-6.238 6.758-9.044 16.127-8.216l-1.829 4.156c-8.785-.77-13.777 1.805-15.135 7.681v.004ZM121.482 148.758l-9.7 12.66-22.287-1.946 9.7-12.665 22.287 1.951ZM99.192 146.807l-9.7 12.664-25.094-78.92 9.7-12.664 25.094 78.92Z"/><path fill="#0500FF" stroke="#0500FF" stroke-linecap="round" stroke-linejoin="round" stroke-width=".34" d="m102.354 142.769-3.16 4.037-25.093-78.92 3.956-1.534 24.297 76.417Z"/><path fill="#1B1B1C" stroke="#0500FF" stroke-linecap="round" stroke-linejoin="round" stroke-width=".34" d="m121.974 144.484-.498 4.273-22.287-1.951 3.159-4.038 19.626 1.716Z"/><path fill="url(#d)" d="m124.345 70.403 7.568 23.804-4.119-.362c-15.24-1.35-19.757 6.92-14.307 23.93l8.491 26.709-19.626-1.715-24.297-76.417 19.033 1.666 6.025 18.942c3.761-16.702 10.967-17.444 21.232-16.557Z"/><path fill="#48FF91" stroke="#0500FF" stroke-linecap="round" stroke-linejoin="round" stroke-width=".34" d="m86.946 108.279 2.028-7.586-10.917-34.34-3.956 1.534 12.845 40.392Z"/><path fill="#48FF91" d="m127.774 93.845 4.119.362-7.568-23.803c-8.36-.725-14.692-.362-18.784 8.817L124.9 93.709c.914.005 1.869.05 2.874.14v-.004ZM99.106 74.4l-2.028-6.381-7.36-.647 9.388 7.029Z"/><path stroke="#0500FF" stroke-linecap="round" stroke-linejoin="round" stroke-width=".34" d="m124.345 70.403 7.568 23.804-4.119-.362c-15.24-1.35-19.757 6.92-14.307 23.93l8.491 26.709-19.626-1.715-24.297-76.417 19.033 1.666 6.025 18.942c3.761-16.702 10.967-17.444 21.232-16.557Z"/><path fill="#1B1B1C" stroke="#0500FF" stroke-linecap="round" stroke-linejoin="round" stroke-width=".34" d="m63.02 62.108-3.956 1.535-16.413-1.435 3.952-1.534 16.417 1.434ZM72.721 49.443l-9.7 12.664-16.416-1.435 9.704-12.664 16.412 1.435Z"/><path fill="#1B1B1C" stroke="#0500FF" stroke-linecap="round" stroke-linejoin="round" stroke-width=".34" d="m73.213 45.172-.494 4.272-16.412-1.434.493-4.273 16.413 1.435ZM17.73 44.649l-9.7 12.664L.216 32.75l9.7-12.66 7.812 24.56Z"/><path fill="#1B1B1C" stroke="#0500FF" stroke-linecap="round" stroke-linejoin="round" stroke-width=".34" d="m34.138 46.089-9.7 12.66-16.412-1.435 9.7-12.665 16.412 1.44Z"/><path fill="#1B1B1C" stroke="#0500FF" stroke-linecap="round" stroke-linejoin="round" stroke-width=".34" d="m37.3 42.048-3.159 4.042-16.412-1.44 3.16-4.037L37.3 42.048Z"/><path fill="#48FF91" stroke="#0500FF" stroke-linecap="round" stroke-linejoin="round" stroke-width=".34" d="m20.891 40.613-3.159 4.037L9.92 20.09l3.956-1.538 7.015 22.061Z"/><path fill="#1B1B1C" stroke="#0500FF" stroke-linecap="round" stroke-linejoin="round" stroke-width=".34" d="m51.43 100.448-9.699 12.66-17.286-54.356 9.7-12.66 17.286 54.356Z"/><path fill="#1B1B1C" stroke="#0500FF" stroke-linecap="round" stroke-linejoin="round" stroke-width=".34" d="m73.588 102.382-9.7 12.664-22.165-1.941 9.7-12.66 22.165 1.937Z"/><path fill="url(#e)" d="m66.207 23.133 7.007 22.038L56.8 43.736l17.29 54.379-19.503-1.707-17.286-54.36-16.412-1.435-7.016-22.061 52.333 4.58Z"/><path fill="#48FF91" stroke="#0500FF" stroke-linecap="round" stroke-linejoin="round" stroke-width=".34" d="m54.583 96.406-3.16 4.038-17.285-54.356 3.16-4.042 17.285 54.36Z"/><path fill="#1B1B1C" stroke="#0500FF" stroke-linecap="round" stroke-linejoin="round" stroke-width=".34" d="m74.09 98.115-.498 4.268-22.165-1.937 3.16-4.038 19.503 1.707Z"/><path fill="#0500FF" d="m37.297 42.046-3.159 4.042 3.906 12.28 2.033-7.586-2.78-8.736ZM42.312 57.818l-2.032 7.59 1.85 5.812 2.028-7.586-1.846-5.816Z"/><path fill="#48FF91" d="m56.801 43.736 16.413 1.435-7.007-22.038-52.333-4.581.24.747 45.82 34.286-3.133-9.849Z"/><path stroke="#0500FF" stroke-linecap="round" stroke-linejoin="round" stroke-width=".34" d="m66.207 23.133 7.007 22.038L56.8 43.736l17.29 54.379-19.503-1.707-17.286-54.36-16.412-1.435-7.016-22.061 52.333 4.58Z"/></g><defs><linearGradient id="b" x1="208.164" x2="208.581" y1="169.622" y2="36.831" gradientUnits="userSpaceOnUse"><stop stop-color="#48FF91"/><stop offset="1" stop-color="#2D9FFF"/></linearGradient><linearGradient id="c" x1="122.785" x2="123.202" y1="148.251" y2="15.46" gradientUnits="userSpaceOnUse"><stop stop-color="#48FF91"/><stop offset="1" stop-color="#2D9FFF"/></linearGradient><linearGradient id="d" x1="104.769" x2="105.186" y1="148.196" y2="15.405" gradientUnits="userSpaceOnUse"><stop stop-color="#48FF91"/><stop offset="1" stop-color="#2D9FFF"/></linearGradient><linearGradient id="e" x1="43.702" x2="44.119" y1="148.003" y2="15.212" gradientUnits="userSpaceOnUse"><stop stop-color="#48FF91"/><stop offset="1" stop-color="#2D9FFF"/></linearGradient><clipPath id="a"><path fill="#fff" d="M0 0h238.823v161.642H0z"/></clipPath></defs></svg>